HIERARCHY
ROOT pelvis
{
  OFFSET 0 100 0
  CHANNELS 6 Xposition Yposition Zposition Zrotation Xrotation Yrotation
  JOINT pelvis_right_femur
  {
    OFFSET -10.78128 -3.44521 -0.5502486
    CHANNELS 3 Zrotation Xrotation Yrotation
    JOINT right_femur_tibia
    {
      OFFSET -0.8047443 -44.0398 -0.1307829
      CHANNELS 3 Zrotation Xrotation Yrotation
      JOINT right_tibia_foot
      {
        OFFSET 3.006224 -47.83518 -5
        CHANNELS 3 Zrotation Xrotation Yrotation
        End Site
        {
          OFFSET 0 -5 15
        }
      }
    }
  }
  JOINT pelvis_left_femur
  {
    OFFSET 10.78128 -3.44521 -0.5502486
    CHANNELS 3 Zrotation Xrotation Yrotation
    JOINT left_femur_tibia
    {
      OFFSET 0.8047443 -44.0398 -0.1307829
      CHANNELS 3 Zrotation Xrotation Yrotation
      JOINT left_tibia_foot
      {
        OFFSET -4.370144 -48.10324 -4.275266
        CHANNELS 3 Zrotation Xrotation Yrotation
        End Site
        {
          OFFSET 0 -5 15
        }
      }
    }
  }
  JOINT pelvis_spine1
  {
    OFFSET 0 6.468898 -3.129235
    CHANNELS 3 Zrotation Xrotation Yrotation
    JOINT spine1
    {
      OFFSET 0 23.15396 4.99043
      CHANNELS 3 Zrotation Xrotation Yrotation
      JOINT spine2
      {
        OFFSET 0 20.79997 -5.064912
        CHANNELS 3 Zrotation Xrotation Yrotation
        JOINT neck
        {
          OFFSET 0 14.38658 9.616178
          CHANNELS 3 Zrotation Xrotation Yrotation
          End Site
          {
            OFFSET 0 20 0
          }
        }
      }
      JOINT right_manubrium
      {
        OFFSET -5.722621 16.35077 3.967754
        CHANNELS 3 Zrotation Xrotation Yrotation
        JOINT right_clavicle
        {
          OFFSET -13.16364 1.694482 -4.693211
          CHANNELS 3 Zrotation Xrotation Yrotation
          JOINT right_humerus
          {
            OFFSET -28.5034 -0.3100689 -2.792744
            CHANNELS 3 Zrotation Xrotation Yrotation
            JOINT right_radius
            {
              OFFSET -25.15693 0.02248979 -1.271978
              CHANNELS 3 Zrotation Xrotation Yrotation
              End Site
              {
                OFFSET -15 0 0
              }
            }
          }
        }
      }
      JOINT left_manubrium
      {
        OFFSET 5.722621 16.35077 3.967754
        CHANNELS 3 Zrotation Xrotation Yrotation
        JOINT left_clavicle
        {
          OFFSET 13.16364 1.694482 -4.693211
          CHANNELS 3 Zrotation Xrotation Yrotation
          JOINT left_humerus
          {
            OFFSET 29.39168 -1.063119 -2.237045
            CHANNELS 3 Zrotation Xrotation Yrotation
            JOINT left_radius
            {
              OFFSET 24.59957 -0.9528479 0.9047498
              CHANNELS 3 Zrotation Xrotation Yrotation
              End Site
              {
                OFFSET 15 -0 -0
              }
            }
          }
        }
      }
    }
  }
}
MOTION
Frames: 7
Frame Time: 0.0416666666667
1321.073 95.90426 2656.498 5.418497 -4.02983 48.57992 0.7769534 -22.64351 1.119245 -0 27.8235 -0 -3.620198 -1.892439 -7.714807 -5.05679 12.51136 -7.811163 -0 11.60364 -0 -2.763213 -19.36633 13.42808 -2.362641 0.9593967 2.239584 1.38975 9.635803 -7.917218 1.927139 23.16084 5.035091 0.8883158 -17.82456 7.458069 -0.01449907 -16.18746 10.21717 91.5582 21.22929 -20.27442 -0 0 9.844382 -19.3732 9.143111 10.89044 5.329736 -22.03785 -5.696248 -82.6849 25.32366 7.25999 0 0 -23.58211 0.6274254 8.926164 13.48083
1325.274 94.53017 2660.302 5.003383 -3.148014 49.12308 0.4853399 -25.66952 0.375379 -0 17.38974 -0 -4.331512 -2.77049 -7.953224 -5.192515 14.9883 -7.346697 -0 10.87745 -0 -2.592579 -21.02336 12.8472 -2.784191 0.7050874 2.192844 1.863498 9.249589 -8.295002 2.116004 23.09148 4.758241 0.8890326 -17.97375 7.334847 -0.4475306 -15.49794 10.10894 92.27185 20.69376 -21.94335 -0 0 7.999032 -18.66756 8.919922 10.25908 5.947454 -23.18274 -5.633692 -81.44449 25.05282 4.625546 0 0 -26.16275 1.470955 9.151815 12.30608
1329.623 92.81471 2664.366 4.707477 -2.299741 49.66979 0.3506939 -27.23264 0.04261487 -0 10.04774 -0 -4.960698 -3.219491 -8.270748 -5.372907 17.14093 -7.154242 -0 10.95586 -0 -2.5954 -22.19362 12.5243 -3.258607 0.3323991 2.134575 2.198652 8.777205 -8.461713 2.333719 23.04843 4.414183 0.9008255 -18.07794 7.173481 -0.6347833 -14.73818 9.992165 92.73091 20.45916 -23.16304 -0 0 6.40364 -17.62907 8.582432 9.431268 6.370375 -23.81368 -5.411404 -80.60429 25.0524 2.652588 0 0 -27.77925 1.993907 9.416139 11.38479
1334.123 91.11548 2668.713 4.460704 -1.821384 50.24983 0.7606414 -27.67473 0.3266018 -0 7.129608 -0 -5.585572 -3.627684 -8.76941 -5.31059 19.41254 -7.501643 -0 12.8908 -0 -3.248091 -22.4232 12.32016 -3.473387 -0.01197265 1.819887 2.355365 8.097578 -8.385866 2.656979 23.14635 3.992275 0.9090362 -17.97184 7.086231 -0.4330466 -13.64729 9.770032 92.81964 20.82826 -23.72818 -0 0 5.119443 -16.10234 8.361048 8.25056 6.527574 -23.63092 -4.997759 -80.17993 25.55485 1.198807 0 0 -27.88491 2.163421 10.09069 10.71356
1338.743 89.94354 2673.348 3.893578 -1.930607 50.75509 2.186301 -27.34988 1.390007 -0 9.014842 -0 -6.337385 -3.919223 -9.186086 -4.66434 21.40773 -8.475254 -0 18.15126 -0 -4.819456 -21.01464 12.00383 -3.036953 -0.2156575 1.202026 2.417023 7.386677 -8.200843 2.986257 23.27175 3.652708 1.036781 -17.92791 7.069324 0.4123356 -12.36625 9.518846 92.35155 22.33279 -23.62493 -0 0 4.405767 -14.25007 8.588098 6.882236 6.306446 -22.59639 -4.417622 -80.53259 26.60777 0.920209 0 0 -26.13531 1.958714 11.24873 10.50633
1343.415 89.69049 2678.153 2.805571 -2.495772 50.97397 4.432385 -26.12791 2.899249 -0 13.46153 -0 -7.025951 -3.997668 -8.961696 -3.520174 21.47838 -9.58759 -0 27.04577 -0 -6.890966 -17.7023 11.42685 -1.870746 -0.2743085 0.7367827 2.518218 7.1332 -8.105767 3.043583 23.18796 3.667866 1.39076 -18.42629 7.010085 1.821988 -11.61478 9.511287 91.33578 24.78943 -23.14247 -0 0 4.615375 -12.85099 9.417818 5.956459 5.722124 -21.26632 -3.855326 -82.07111 27.77249 2.828851 0 0 -23.21587 1.441347 12.33598 11.07226
1348.065 90.2892 2682.93 1.967321 -3.153381 50.80418 6.249163 -23.36237 4.061875 -0 16.99803 -0 -7.321975 -4.395459 -8.143487 -2.618592 18.68891 -10.05303 -0 37.67043 -0 -8.504583 -13.61755 11.00798 -0.6609071 -0.1899894 0.9744335 2.592935 7.467361 -7.991409 2.831256 23.06162 3.950486 1.811436 -19.07974 6.863485 3.111916 -11.68484 9.822254 90.22271 26.96995 -22.53447 -0 0 5.422864 -12.47782 10.34975 5.760268 5.04012 -20.33765 -3.504785 -84.20097 28.35614 6.057646 0 0 -20.60836 0.9284931 12.74864 12.01306
